# xmcd
#
# Track frame offsets:
#	150
#	19668
#	39323
#	63558
#	89920
#	116324
#	149126
#	167983
#	186702
#	204475
#	223787
#	239935
#	264454
#	281647
#
# Disc length: 3962 seconds
#
# Revision: 1
# Processed by: cddbd v1.4PL0 Copyright (c) Steve Scherf et al.
# Submitted via: audiograbber 1.80.04
#
DISCID=ea0f780e
DTITLE=Diana King - The Best Of
DYEAR=2002
DGENRE=
TTITLE0=Shy Guy
TTITLE1=Love Triangle
TTITLE2=Ain't Nobody
TTITLE3=Hey Jude
TTITLE4=Sukiyaki
TTITLE5=Bob Marley Medley
TTITLE6=L-L-Lies
TTITLE7=Find My Way Back
TTITLE8=Supa-Lova-Bwoy
TTITLE9=Tenderness
TTITLE10=I Say A Little Prayer
TTITLE11=Do You Really Want To Hurt Me
TTITLE12=Stir It Up
TTITLE13=I Say A Little Prayer (Radio Mix)
EXTD=
EXTT0=
EXTT1=
EXTT2=
EXTT3=
EXTT4=
EXTT5=
EXTT6=
EXTT7=
EXTT8=
EXTT9=
EXTT10=
EXTT11=
EXTT12=
EXTT13=
PLAYORDER=
